<svg xmlns="http://www.w3.org/2000/svg" viewBox="0 0 90 90"><title>newspaper</title><g id="newspaper-flat"><circle id="label" cx="45" cy="45" r="45" fill="#acaf48"/><g id="shadow"><path d="M89.82,44.82h-.18v-.18h-.18v-.18h-.18v-.18h-.18v-.18h-.18v-.18h-.18v-.18h-.18v-.18h-.18v-.18h-.18v-.18H88V43h-.18v-.18h-.18v-.18h-.18v-.18h-.18v-.18h-.18v-.18H87V42h-.18v-.18H86.6V41.6h-.18v-.18h-.18v-.18h-.18v-.18h-.18v-.18H85.7V40.7h-.18v-.18h-.18v-.18h-.18v-.18H85V40H84.8V39.8h-.18v-.18h-.18v-.18h-.18v-.18h-.18v-.18h-.18v-.18h-.18v-.18h-.18v-.18h-.18v-.18h-.18v-.18H83V38h-.18v-.18h-.18v-.18h-.18v-.18h-.18v-.18h-.18v-.18h-.18v-.18h-.18v-.18h-.18v-.18H81.4V36.4h-.18v-.18H81V36h-.18v-.18h-.18v-.18H80.5V35.5h-.18v-.18h-.18v-.18H80V35h-.18v-.18h-.18v-.18h-.18v-.18h-.18v-.18h-.18v-.18h-.18v-.18h-.18v-.18h-.18v-.18h-.18v-.18h-.18v-.18H78V33h-.18v-.18h-.18v-.18h-.18v-.18h-.18v-.18H77.1V32.1h-.18v-.18h-.18v-.18h-.18v-.18h-.18v-.18H76.2V31.2H76V31h-.18v-.18h-.18v-.18h-.18v-.18H75.3V30.3h-.18v-.18h-.18v-.18h-.18v-.18h-.18v-.18h-.18v-.18h-.18v-.18H74V29h-.18v-.18h-.18v-.18h-.18v-.18h-.18v-.18h-.18v-.18H73V28h-.18v-.18h-.18v-.18h-.18v-.18h-.18v-.18h-.18v-.18H71.9V26.9h-.18v-.18h-.18v-.18h-.18v-.18h-.18v-.18H71V26H29.06v5.91H19v27a5.06,5.06,0,0,0,1.58,3.67l.18.18.18.18.18.18.18.18.18.18.18.18.18.18L22,64l.18.18.18.18.18.18.18.18.18.18.18.18.18.18.18.18.18.18.18.18L24,66l.18.18.18.18.18.18.18.18.18.18.18.18.18.18.18.18.18.18.18.18L26,68l.18.18.18.18.18.18.18.18.18.18.18.18.18.18.18.18.18.18.18.18.18.18.18.18.18.18.18.18.18.18.18.18L29,71l.18.18.18.18.18.18.18.18.18.18.18.18.18.18.18.18.18.18.18.18L31,73l.18.18.18.18.18.18.18.18.18.18.18.18.18.18.18.18.18.18.18.18.18.18.18.18.18.18.18.18.18.18.18.18L34,76l.18.18.18.18.18.18.18.18.18.18.18.18.18.18.18.18.18.18.18.18L36,78l.18.18.18.18.18.18.18.18.18.18.18.18.18.18.18.18.18.18.18.18L38,80l.18.18.18.18.18.18.18.18.18.18.18.18.18.18.18.18.18.18.18.18.18.18.18.18.18.18.18.18.18.18.18.18L41,83l.18.18.18.18.18.18.18.18.18.18.18.18.18.18.18.18.18.18.18.18L43,85l.18.18.18.18.18.18.18.18.18.18.18.18.18.18.18.18.18.18.18.18L45,87l.18.18.18.18.18.18.18.18.18.18.18.18.18.18.18.18.18.18.18.18.18.18.18.18.18.18.18.18.18.18.18.18,0,0A45,45,0,0,0,90,45h-.18Z" fill="#9ea142"/></g><g id="newspaper"><path d="M24,64H71V26H29.06V58.93A5,5,0,0,1,24,64Z" fill="#fff"/><path d="M19,31.91v27a5,5,0,1,0,10.06,0v-27Z" fill="#e0e0e0"/><rect x="33.26" y="29.38" width="33.55" height="6.99" fill="#fc6e51"/><polygon points="55.06 39.57 45 39.57 45 37.76 55.06 37.76 55.06 39.57 55.06 39.57" fill="#434a54"/><polygon points="43.32 39.57 33.26 39.57 33.26 37.76 43.32 37.76 43.32 39.57 43.32 39.57" fill="#434a54"/><polygon points="55.06 42.95 45 42.95 45 41.14 55.06 41.14 55.06 42.95 55.06 42.95" fill="#434a54"/><polygon points="55.06 46.33 45 46.33 45 44.52 55.06 44.52 55.06 46.33 55.06 46.33" fill="#434a54"/><polygon points="55.06 49.7 45 49.7 45 47.9 55.06 47.9 55.06 49.7 55.06 49.7" fill="#434a54"/><polygon points="66.81 53.08 56.74 53.08 56.74 51.27 66.81 51.27 66.81 53.08 66.81 53.08" fill="#434a54"/><polygon points="55.06 53.08 45 53.08 45 51.27 55.06 51.27 55.06 53.08 55.06 53.08" fill="#434a54"/><polygon points="66.81 56.46 56.74 56.46 56.74 54.65 66.81 54.65 66.81 56.46 66.81 56.46" fill="#434a54"/><polygon points="55.06 56.46 45 56.46 45 54.65 55.06 54.65 55.06 56.46 55.06 56.46" fill="#434a54"/><polygon points="66.81 59.84 56.74 59.84 56.74 58.03 66.81 58.03 66.81 59.84 66.81 59.84" fill="#434a54"/><polygon points="55.06 59.84 45 59.84 45 58.03 55.06 58.03 55.06 59.84 55.06 59.84" fill="#434a54"/><rect x="57.58" y="38.67" width="8.39" height="10.13" fill="#f77b55"/><rect x="57.58" y="38.67" width="8.39" height="10.13" fill="#ffca28"/><rect x="34.1" y="42.05" width="8.39" height="16.89" fill="#3bafda"/></g></g></svg>